<svg width="20" height="14" viewBox="0 0 20 14" fill="none" xmlns="http://www.w3.org/2000/svg">
<path d="M7.9973 9.79928C7.58201 10.101 7.13933 10.2743 6.66926 10.3192C6.19527 10.3587 5.73776 10.279 5.29672 10.0803C4.86108 9.87768 4.48848 9.56332 4.17891 9.13724C3.86543 8.70576 3.68233 8.24959 3.62963 7.76874C3.58231 7.28396 3.65802 6.82106 3.85674 6.38003C4.05154 5.9336 4.36198 5.5556 4.78806 5.24604C5.21414 4.93647 5.66687 4.75999 6.14625 4.71659C6.62711 4.66389 7.08806 4.73689 7.52909 4.93561C7.97552 5.13041 8.35817 5.44159 8.67705 5.86915L8.56732 6.24553C8.84946 6.63386 9.01248 7.05105 9.05638 7.4971C9.10175 7.93384 9.03464 8.35753 8.85506 8.76819C8.67694 9.16953 8.39102 9.51323 7.9973 9.79928ZM7.65057 9.18595C7.96339 8.95867 8.18826 8.68405 8.32516 8.36209C8.46746 8.03622 8.51663 7.69559 8.47269 7.34022C8.43022 6.97553 8.29339 6.63408 8.0622 6.31587C7.82708 5.99226 7.54463 5.75661 7.21483 5.60892C6.89043 5.45731 6.55128 5.39882 6.19738 5.43345C5.84495 5.45877 5.51233 5.58507 5.19951 5.81235C4.89208 6.03571 4.66918 6.31302 4.5308 6.64429C4.38851 6.97017 4.33663 7.31275 4.37518 7.67205C4.41373 8.03134 4.55056 8.37279 4.78568 8.6964C5.01687 9.01461 5.29933 9.25026 5.63304 9.40334C5.96284 9.55103 6.30469 9.60756 6.65858 9.57293C7.01248 9.5383 7.34315 9.40931 7.65057 9.18595ZM9.96619 8.307C9.8745 8.37362 9.7794 8.40151 9.68088 8.39068C9.57845 8.37446 9.49393 8.3205 9.42731 8.22881L8.4222 6.84539L8.11156 6.09459L8.67705 5.86915L10.0583 7.77034C10.125 7.86203 10.1502 7.95909 10.1339 8.06152C10.1138 8.15856 10.0579 8.24039 9.96619 8.307Z" fill="black"/>
<path d="M15.2885 9.86672C14.8679 10.1724 14.4171 10.3515 13.9362 10.4042C13.4608 10.453 13.0018 10.3827 12.5593 10.1933C12.1182 9.9946 11.7422 9.68686 11.4312 9.27009L8.65682 5.45153C8.58628 5.35444 8.55839 5.25934 8.57314 5.16622C8.58936 5.06379 8.64601 4.97731 8.7431 4.90677C8.83478 4.84016 8.92915 4.81692 9.02619 4.83706C9.1247 4.84789 9.20922 4.90185 9.27976 4.99893L11.0078 7.37744C11.0017 6.99464 11.0893 6.62192 11.2709 6.25931C11.4539 5.88737 11.726 5.57014 12.0874 5.30759C12.5027 5.00586 12.9473 4.83526 13.4213 4.79578C13.8914 4.75092 14.3442 4.8298 14.7799 5.03244C15.2209 5.23116 15.5962 5.54356 15.9058 5.96964C16.2193 6.40112 16.3997 6.85924 16.447 7.34401C16.4997 7.82487 16.4286 8.28851 16.2338 8.73494C16.0351 9.17597 15.72 9.55323 15.2885 9.86672ZM14.8771 9.30041C15.1899 9.07313 15.4175 8.79655 15.5598 8.47067C15.6982 8.1394 15.7454 7.79608 15.7014 7.44071C15.6629 7.08141 15.526 6.73996 15.2909 6.41636C15.0597 6.09814 14.7792 5.86519 14.4494 5.7175C14.1211 5.5605 13.78 5.49931 13.4261 5.53394C13.0722 5.56857 12.7389 5.69953 12.426 5.9268C12.1186 6.15016 11.8937 6.42478 11.7514 6.75066C11.6092 7.07654 11.5619 7.41986 11.6098 7.78063C11.6537 8.136 11.7913 8.4728 12.0225 8.79101C12.2576 9.11462 12.5374 9.35222 12.8618 9.50383C13.1862 9.65544 13.5273 9.71663 13.8851 9.68739C14.239 9.65276 14.5697 9.52376 14.8771 9.30041Z" fill="black"/>
</svg>
